<?xml version="1.0" encoding="UTF-8"?>
<svg xmlns="http://www.w3.org/2000/svg" id="Growth_Marketing" data-name="Growth Marketing" viewBox="0 0 64 64" width="512" height="512"><path d="M55.47,49.3A5.454,5.454,0,0,0,57,45.5a5.511,5.511,0,0,0-3.92-5.27A4.491,4.491,0,0,0,51,33.27V29a1,1,0,0,0,.99-.86l.03-.23,3.71,1.05A.842.842,0,0,0,56,29a1,1,0,0,0,1-1V24a1,1,0,0,0-.38-.78l-3.55-2.85.92-6.63A.66.66,0,0,0,54,13.6a11.006,11.006,0,0,0-3.84-8.35L46.65,2.24a1,1,0,0,0-1.3,0L41.84,5.25A11.006,11.006,0,0,0,38,13.6a.66.66,0,0,0,.01.14l.92,6.63-3.55,2.85A1,1,0,0,0,35,24v4a1,1,0,0,0,1,1,.842.842,0,0,0,.27-.04l3.71-1.05.03.23A1,1,0,0,0,41,29v4.27a4.491,4.491,0,0,0-2.08,6.96A5.511,5.511,0,0,0,35,45.5a5.444,5.444,0,0,0,.22,1.5H32V40.46a6.966,6.966,0,0,0-4.99-6.7l-2.16-.65A3.978,3.978,0,0,1,22,29.28v-.8A9.01,9.01,0,0,0,26,21V19h1a3.009,3.009,0,0,0,3-3V15a3.009,3.009,0,0,0-3-3H26V9a7.008,7.008,0,0,0-7-7H5A1,1,0,0,0,4,3V4.31a8.689,8.689,0,0,0,4,7.3V12H7a3.009,3.009,0,0,0-3,3v1a3.009,3.009,0,0,0,3,3H8v2a9.01,9.01,0,0,0,4,7.48v.8a3.978,3.978,0,0,1-2.85,3.83l-2.16.65A6.966,6.966,0,0,0,2,40.46V61a1,1,0,0,0,1,1H26a1,1,0,0,0,1-1V54h5.18A6.283,6.283,0,0,0,32,55.5,6.513,6.513,0,0,0,38.5,62h15a6.5,6.5,0,0,0,1.97-12.7ZM52.75,22.68,55,24.48v2.2l-2.7-.77ZM37,26.68v-2.2l2.25-1.8.45,3.23ZM26,14h1a1,1,0,0,1,1,1v1a1,1,0,0,1-1,1H26ZM8,17H7a1,1,0,0,1-1-1V15a1,1,0,0,1,1-1H8Zm32.99,3.66L40,13.53a8.991,8.991,0,0,1,3.14-6.76L46,4.32l2.86,2.45A8.991,8.991,0,0,1,52,13.53L50.13,27H48.78l-1.81-7.24a1,1,0,0,0-1.94,0L43.22,27H41.87l-.07-.51Zm5.95,7.22L46,29.76l-.94-1.88L46,24.12ZM22.38,34.05a6.65,6.65,0,0,0,.62.41l-1.39,3.73-2.8-2.8ZM17,33.93l-3.93-1.47a5.933,5.933,0,0,0,.91-2.99,8.869,8.869,0,0,0,6.04,0,5.933,5.933,0,0,0,.91,2.99Zm.97,3.45L17.5,38h-1l-.47-.62.97-.97ZM6,4.31V4H19a5,5,0,0,1,5,5v2H12.69A6.7,6.7,0,0,1,6,4.31ZM10,21V12.57a8.563,8.563,0,0,0,2.69.43H24v8a7,7,0,0,1-14,0Zm1.63,13.05,3.56,1.34-2.8,2.8L11,34.46C11.21,34.33,11.43,34.2,11.63,34.05ZM12.13,60H9V44H7V60H4V40.46a4.959,4.959,0,0,1,3.57-4.78l1.57-.47,1.92,5.14a1.011,1.011,0,0,0,.73.63A1.492,1.492,0,0,0,12,41a1.007,1.007,0,0,0,.71-.29l1.89-1.9.35.46Zm2.02,0,2.72-20h.26l2.72,20ZM27,52V44H25V60H21.87L19.05,39.27l.35-.46,1.89,1.9A1.007,1.007,0,0,0,22,41a1.492,1.492,0,0,0,.21-.02,1.011,1.011,0,0,0,.73-.63l1.92-5.14,1.57.47A4.959,4.959,0,0,1,30,40.46V48a1,1,0,0,0,1,1H41v3Zm26.5,8h-15a4.494,4.494,0,0,1-4.24-6H46.5a3.488,3.488,0,0,0,3.48-3.86A3.612,3.612,0,0,0,46.36,47H46v-.5a2.5,2.5,0,0,0-5,0V47H37.34a3.5,3.5,0,0,1,3.16-5h2a1,1,0,0,0,0-2,2.493,2.493,0,0,1-.36-4.96,1,1,0,0,0,.86-.99V29h.38l1.73,3.45a1,1,0,0,0,1.78,0L48.62,29H49v5.05a1,1,0,0,0,.86.99A2.493,2.493,0,0,1,49.5,40a1,1,0,0,0,0,2h2a3.5,3.5,0,0,1,0,7,1,1,0,0,0,0,2h2a4.5,4.5,0,0,1,0,9ZM45,49h1.36a1.588,1.588,0,0,1,1.63,1.34,1.479,1.479,0,0,1-.38,1.17A1.507,1.507,0,0,1,46.5,52H43V46.5a.5.5,0,0,1,1,0V48A1,1,0,0,0,45,49Z"/><path d="M46,16a4,4,0,1,0-4-4A4,4,0,0,0,46,16Zm0-6a2,2,0,1,1-2,2A2,2,0,0,1,46,10Z"/><path d="M14,19a1,1,0,0,0,1-1V17a1,1,0,0,0-2,0v1A1,1,0,0,0,14,19Z"/><path d="M20,19a1,1,0,0,0,1-1V17a1,1,0,0,0-2,0v1A1,1,0,0,0,20,19Z"/></svg>
